<?xml version="1.0" encoding="utf-8"?>
<!-- Generator: Adobe Illustrator 16.0.0, SVG Export Plug-In . SVG Version: 6.00 Build 0)  -->
<!DOCTYPE svg PUBLIC "-//W3C//DTD SVG 1.1//EN" "http://www.w3.org/Graphics/SVG/1.1/DTD/svg11.dtd">
<svg version="1.1" id="Layer_1" xmlns="http://www.w3.org/2000/svg" xmlns:xlink="http://www.w3.org/1999/xlink" x="0px" y="0px"
	 width="557px" height="220px" viewBox="0 0 557 220" enable-background="new 0 0 557 220" xml:space="preserve">
<g>
	<g>
		<g>
			<path fill="#FFFFFF" d="M90.5,120.936v84.38c0,3.99,4.008,6.685,7.999,6.685h4.876c3.991,0,7.125-2.694,7.125-6.685v-86.03
				L90.5,120.936z"/>
		</g>
		<g>
			<path fill="#FFFFFF" d="M110.5,35.374V23.191c0-3.991-3.135-7.191-7.125-7.191h-4.876c-3.991,0-7.999,3.2-7.999,7.191v17.905
				L110.5,35.374z"/>
		</g>
	</g>
	<g>
		<g>
			<path fill="#FFFFFF" d="M17.013,122.036l2.422-54.352l154.193-46.729l44.666,26.867l-27.566,59.782L17.013,122.036z
				 M25.653,72.547l-1.892,42.46l162.695-13.491l23.589-51.155l-37.305-22.439L25.653,72.547z"/>
		</g>
	</g>
	<g>
		<polygon fill="#FFFFFF" points="201.043,53.648 181.78,95.425 29.839,109.259 31.464,76.004 170.175,35.08 		"/>
	</g>
	<g>
		<path fill="#FFFFFF" d="M156.528,144.264c0.194-0.775,0.776-1.455,1.843-1.455h1.358c0.679,0,1.164,0.389,1.357,0.971
			l13.192,43.94h0.194l26.384-43.94c0.388-0.582,0.873-0.971,1.648-0.971h1.455c0.68,0,1.358,0.68,1.358,1.455l0.873,65.184
			c0,1.358-0.873,2.231-1.94,2.231h-9.312c-0.97,0-1.455-0.776-1.455-1.455l0.776-34.823c-0.098,0-0.194,0-0.291,0l-20.273,36.182
			c-0.291,0.582-0.873,1.066-1.649,1.066h-1.552c-0.775,0-1.164-0.484-1.357-1.066l-9.895-36.182c0,0-0.097,0-0.194,0l-9.312,34.823
			c-0.194,0.679-0.679,1.455-1.843,1.455h-9.215c-1.067,0-1.746-0.873-1.358-2.231L156.528,144.264z"/>
		<path fill="#FFFFFF" d="M217.056,209.156l36.473-65.281c0.388-0.678,0.873-1.066,1.648-1.066h0.873
			c0.679,0,1.164,0.484,1.358,1.066l17.848,65.281c0.388,1.262-0.485,2.522-1.843,2.522h-8.439c-1.455,0-2.23-0.485-2.521-1.94
			l-2.425-10.767h-24.153l-5.626,10.767c-0.485,0.971-1.552,1.94-3.104,1.94h-8.924
			C216.862,211.679,216.377,210.418,217.056,209.156z M256.923,188.496l-4.559-21.146h-0.194l-10.573,21.146H256.923z"/>
		<path fill="#FFFFFF" d="M298.535,146.106c0.193-1.261,1.164-2.327,2.425-2.327h9.118c1.164,0,1.939,1.066,1.746,2.327
			l-3.687,26.19l22.795-26.772c1.067-1.261,1.94-1.745,3.978-1.745h9.603c1.649,0,2.231,1.745,0.97,3.2l-26.48,29.683l19.594,32.01
			c0.679,1.261-0.291,3.007-1.939,3.007h-8.827c-1.844,0-2.619-0.388-3.492-1.94l-17.267-29.973l-4.171,29.585
			c-0.097,1.261-1.261,2.328-2.328,2.328h-9.117c-1.262,0-1.94-1.067-1.844-2.328L298.535,146.106z"/>
		<path fill="#FFFFFF" d="M363.912,145.621c0.097-0.969,0.97-1.842,1.843-1.842h35.891c0.97,0,1.552,0.873,1.454,1.842l-1.163,7.955
			c-0.098,0.969-0.971,1.843-1.94,1.843h-24.832l-2.231,15.908h20.564c0.873,0,1.552,0.872,1.455,1.843l-1.164,8.051
			c-0.194,1.067-1.067,1.843-1.94,1.843h-20.563l-2.425,16.976h24.929c0.97,0,1.455,0.873,1.358,1.843l-1.067,7.954
			c-0.097,0.97-0.97,1.843-1.94,1.843h-35.89c-0.97,0-1.552-0.873-1.358-1.843L363.912,145.621z"/>
		<path fill="#FFFFFF" d="M422.597,145.621c0.097-0.969,0.97-1.842,1.843-1.842h25.608c9.506,0,16.393,8.147,16.393,18.139
			c0,11.834-6.208,19.497-15.423,22.406l7.954,24.832c0.388,1.262-0.194,2.522-1.649,2.522h-9.215c-0.97,0-1.843-0.388-2.134-1.552
			l-7.081-25.026h-9.215l-3.492,24.735c-0.097,0.97-0.97,1.843-1.843,1.843h-9.409c-0.97,0-1.552-0.873-1.358-1.843L422.597,145.621
			z M443.354,174.722c6.111,0,10.186-5.141,10.186-11.252c0-4.365-2.717-8.051-6.306-8.051h-13.289l-2.716,19.303H443.354z"/>
		<path fill="#FFFFFF" d="M477.401,202.173l3.783-5.529c0.873-1.357,2.23-1.066,3.007-0.388c1.357,1.164,6.11,5.044,12.028,5.044
			c4.364,0,8.633-3.396,8.633-8.245c0-4.268-2.91-7.081-8.342-10.67c-6.402-4.171-13.969-9.7-13.969-19.4
			c0-9.699,6.693-20.176,21.922-20.176c9.021,0,15.617,4.656,17.267,6.305c1.164,1.164,1.261,2.522,0.291,3.881l-3.783,5.335
			c-0.776,1.163-2.037,1.261-3.395,0.193c-1.553-1.261-6.015-4.268-10.962-4.268c-4.946,0-8.244,3.783-8.244,7.565
			c0,3.88,2.618,5.82,8.438,9.7c6.402,4.269,14.938,9.604,14.938,20.273c0,11.349-8.827,20.854-23.184,20.854
			c-9.991,0-16.878-5.819-18.43-7.565C476.819,204.501,476.334,203.628,477.401,202.173z"/>
	</g>
	<g>
		<path fill="#FFFFFF" d="M222.606,114.466l5.771-8.436c1.332-2.072,3.404-1.628,4.588-0.592c2.072,1.776,9.324,7.695,18.352,7.695
			c6.66,0,13.171-5.179,13.171-12.579c0-6.512-4.44-10.804-12.728-16.279c-9.768-6.364-21.311-14.8-21.311-29.599
			s10.211-30.783,33.447-30.783c13.763,0,23.828,7.104,26.343,9.62c1.775,1.776,1.924,3.848,0.443,5.919l-5.771,8.14
			c-1.184,1.776-3.107,1.924-5.18,0.296c-2.368-1.924-9.176-6.512-16.724-6.512s-12.58,5.772-12.58,11.544
			c0,5.92,3.996,8.879,12.875,14.799c9.768,6.512,22.791,14.651,22.791,30.931c0,17.315-13.467,31.818-35.371,31.818
			c-15.243,0-25.751-8.879-28.119-11.543C221.718,118.019,220.979,116.687,222.606,114.466z"/>
		<path fill="#FFFFFF" d="M315.252,28.185c0.148-1.48,1.48-2.812,2.812-2.812h14.504c1.332,0,2.368,1.332,2.071,2.812
			l-13.764,97.973c-0.147,1.479-1.479,2.812-2.812,2.812h-14.503c-1.332,0-2.368-1.332-2.072-2.812L315.252,28.185z"/>
		<path fill="#FFFFFF" d="M402.274,23.893c13.319,0,23.235,5.18,30.783,14.06c0.888,1.184,0.739,2.96-0.593,4.144l-7.844,7.696
			c-1.775,1.332-3.552,1.332-4.884,0c-3.848-3.7-9.323-7.4-18.499-7.4c-17.76,0-33.15,18.352-33.15,39.515
			c0,15.688,9.915,29.303,22.939,29.303c6.955,0,12.283-1.775,15.095-3.552l1.776-13.023h-9.473c-1.479,0-2.367-1.184-2.219-2.664
			l1.627-11.544c0.297-1.628,1.48-2.812,2.961-2.812h26.194c1.332,0,2.22,1.332,2.072,2.812l-4.884,35.519
			c-0.296,2.368-1.332,3.7-2.368,4.588c-1.479,1.184-13.171,9.915-33.151,9.915c-24.123,0-41.586-20.571-41.586-46.026
			C347.072,49.645,371.344,23.893,402.274,23.893z"/>
		<path fill="#FFFFFF" d="M457.923,26.557c0.148-1.48,1.48-2.664,2.813-2.664h3.848l45.139,63.934h0.147l7.992-59.642
			c0.147-1.48,1.332-2.812,2.812-2.812h14.355c1.332,0,2.368,1.332,2.221,2.812l-14.06,99.601c-0.148,1.479-1.48,2.663-2.813,2.663
			h-3.996l-44.99-65.857h-0.147l-7.992,61.566c-0.147,1.479-1.479,2.812-2.96,2.812h-14.207c-1.185,0-2.221-1.184-2.072-2.516
			L457.923,26.557z"/>
	</g>
</g>
</svg>
