<?xml version="1.0" encoding="UTF-8"?>
<!-- Generated by Pixelmator Pro 3.7 -->
<svg width="512" height="512" viewBox="0 0 512 512" xmlns="http://www.w3.org/2000/svg">
    <path id="Path" fill="#000000" stroke="none" visibility="hidden" d="M 513 95 C 513 234.245728 513 373.491425 513 513 C 420.645935 513 328.291626 513 235.544708 512.655457 C 239.967667 508.144562 242.19017 503.174561 242.171921 496.51474 C 241.970657 423.082275 242.019669 349.649139 242.003525 276.216187 C 242.001984 269.145721 241.893814 268.974518 234.681946 269.013733 C 219.123535 269.098389 203.53009 268.177399 188.158661 271.986023 C 183.988403 273.019287 183.980881 275.371826 183.98175 278.495026 C 184.002151 350.929047 183.977829 423.363129 184.089127 495.796967 C 184.092896 498.256531 184.924118 501.024536 186.234955 503.103119 C 188.459869 506.631287 191.374969 509.724182 194 513 C 129.733261 513 65.466515 513 1 513 C 1 436.645874 1 360.291595 1.426619 283.472076 C 4.077286 282.582428 7.806273 282.74585 8.244475 281.623962 C 9.583259 278.19632 11.990164 279.205017 14.254315 278.992767 C 27.786541 277.724274 41.71434 281.961639 54.932545 276.068054 C 55.768547 275.695313 56.910587 276.004089 57.910248 276.004028 C 67.23925 276.003418 76.569427 276.080231 85.896141 275.93457 C 87.546906 275.908813 89.205162 275.017059 90.820648 274.419037 C 92.842773 273.670441 94.808182 272.161591 96.826065 272.111633 C 106.650696 271.868469 116.484673 272.011292 126.315308 271.993713 C 127.639626 271.991364 129.667587 272.376068 130.172852 271.694427 C 133.285339 267.4953 137.633743 269.154327 141.500504 269.057526 C 149.492874 268.857544 157.493774 269.020569 165.490601 268.95874 C 166.957138 268.947418 168.447571 268.691406 169.880707 268.352631 C 173.450516 267.508759 176.954666 266.039581 180.557037 265.765381 C 185.508087 265.388519 190.534164 266.120789 195.511871 265.9375 C 200.772659 265.743866 206.58429 266.27301 211.102264 264.195923 C 215.516327 262.166595 219.593506 262.070404 223.957825 262.027252 C 231.620834 261.951447 239.285507 262.05304 246.949478 262.05304 C 248.106216 262.05304 249.903198 262.350739 250.317337 261.755127 C 253.335114 257.415009 257.721344 259.160004 261.577179 259.070862 C 269.901337 258.878418 278.236298 259.129333 286.558624 258.900421 C 288.537872 258.845978 290.499969 257.65683 292.44165 256.915466 C 293.95816 256.336487 295.422943 255.107941 296.924255 255.085754 C 307.585419 254.928223 318.250305 255.040955 328.9133 254.96814 C 330.25589 254.958984 331.626953 254.465607 332.926971 254.025696 C 334.662415 253.438477 336.329651 252.129761 338.046356 252.093719 C 347.372894 251.897949 356.706207 252.050537 366.035767 251.951111 C 367.794403 251.932373 370.20575 251.924103 371.182037 250.865356 C 374.513214 247.253052 378.628143 248.032104 382.645477 248.01355 C 390.809784 247.97583 398.974548 248.028198 407.138947 248.001099 C 408.625854 247.996155 410.644287 248.368103 411.505493 247.575409 C 415.032379 244.329102 419.209686 245.04483 423.292664 245.011078 C 428.624268 244.967041 433.978546 244.694275 439.282074 245.081696 C 444.29483 245.447876 447.06131 244.109924 446.080048 238.522949 C 447.54187 238.154572 448.74527 237.851318 449.506561 237.659454 C 450.799591 233.119049 451.919525 229.053345 453.158661 225.024353 C 453.294708 224.582031 454.201111 224.430725 454.59967 224.003906 C 455.441101 223.102661 456.539673 222.226013 456.900726 221.130859 C 458.144043 217.359985 459.001251 213.462341 460.22757 209.685059 C 461.153748 206.832153 461.944489 202.064148 463.62149 201.670898 C 469.021271 200.404694 466.405792 195.04599 469.547607 192.317383 C 472.552887 189.707367 472.760803 183.885132 474.218658 179.481567 C 475.169708 176.608704 475.39386 173.02063 477.287323 171.033142 C 481.22998 166.894775 483.553131 162.357025 484.17215 156.790833 C 484.202972 156.513672 484.542633 156.282959 484.689362 156.004761 C 486.774963 152.050842 488.972046 148.149414 490.888519 144.114868 C 492.137329 141.48584 492.870819 138.616028 494.038147 135.942749 C 494.692474 134.444275 495.802704 133.150757 496.626984 131.718536 C 497.169586 130.775757 497.655243 129.780884 498.016388 128.75647 C 499.296387 125.125885 500.245789 121.352356 501.8237 117.860382 C 503.538513 114.06546 506.110077 110.651917 507.760345 106.835266 C 509.30072 103.272827 510.082825 99.386383 511.321625 95.683716 C 511.446533 95.310425 512.420227 95.22113 513 95 Z"/>
    <path id="path1" fill="#000000" stroke="none" visibility="hidden" d="M 1 201 C 1 134.407593 1 67.815186 1 1 C 65.020721 1 129.041702 1 193.451492 1.344604 C 188.550964 5.830383 184.370087 11.118591 184.159149 17.800018 C 183.659958 33.611359 183.962158 49.449646 184.037796 65.27655 C 184.063736 70.705566 187.478409 72.216064 192.355469 69.785706 C 196.997314 67.472565 201.919022 65.567993 206.905731 64.140839 C 212.428345 62.560272 218.167877 61.742004 223.803253 60.546082 C 224.602676 60.376434 225.338654 59.924408 226.119049 59.645142 C 228.62851 58.747131 231.086502 57.410767 233.67128 57.080658 C 238.664169 56.442993 242.005905 53.231476 242.025085 48.133148 C 242.056396 39.803223 241.544998 31.438934 242.141068 23.152313 C 242.775986 14.325928 239.809601 7.245239 234 1 C 326.88623 1 419.772461 1 513 1 C 513 27.019897 513 53.04129 512.62085 79.511658 C 507.905762 76.97995 503.667908 73.841858 499.20755 71.060638 C 494.2612 67.976379 489.022003 65.361603 484.078491 62.273163 C 480.00296 59.72699 476.333374 56.513 472.191956 54.095001 C 467.376007 51.283173 461.292511 49.98349 457.496643 46.257446 C 453.172333 42.012695 447.912262 39.861816 443.16983 36.651855 C 438.834167 33.717224 434.478912 30.720917 429.817963 28.37674 C 420.585632 23.733368 413.195953 16.283691 403.270294 12.381226 C 398.96405 10.688171 397.528564 9.902832 393.476929 12.595032 C 389.667114 15.126587 384.129883 15.192749 379.296906 16.016022 C 373.354248 17.02832 368.391693 21.198181 362.00415 20.946167 C 359.715851 20.855896 357.375702 22.281036 355.045258 22.966949 C 353.97406 23.282257 352.035126 23.272095 351.909607 23.768524 C 350.766266 28.290619 346.84259 25.998749 344.464783 27.17868 C 340.274994 29.257813 336.126801 30.446655 331.500702 30.238464 C 331.142395 30.222351 330.802643 30.928619 330.374756 31.131378 C 328.292725 32.118073 326.268372 33.407104 324.067261 33.925751 C 318.790588 35.169159 312.442261 34.639648 308.392822 37.483368 C 304.822144 39.990845 301.780121 39.540619 298.389862 40.055664 C 297.785767 40.14743 296.803955 40.489258 296.723083 40.869934 C 295.809723 45.169556 292.436096 43.742981 289.759399 44.01944 C 288.525024 44.146942 287.258209 44.366821 286.105072 44.805145 C 280.809143 46.818329 275.660583 49.31012 270.242676 50.885925 C 264.918518 52.434479 259.332642 53.081787 253.865479 54.144379 C 253.559998 54.203735 253.292984 54.450104 253.002258 54.597992 C 248.84288 56.713867 244.867905 59.424255 240.474991 60.789642 C 235.110016 62.457184 229.203583 62.421875 223.885025 64.18811 C 218.864594 65.855347 214.365707 69.117188 208.674362 68.320892 C 208.503998 68.297058 208.310318 68.825714 208.055542 68.955322 C 206.658798 69.666016 205.303802 70.573273 203.81633 70.970215 C 198.834793 72.299591 193.798248 73.421783 188.797226 74.680725 C 188.207382 74.829224 187.712814 75.343262 187.164322 75.67157 C 185.859985 76.45224 184.638138 77.601746 183.226364 77.931213 C 177.657532 79.230774 172.015167 80.213257 166.435272 81.469666 C 165.57135 81.664215 164.9487 82.767731 164.111298 83.283325 C 163.041916 83.941711 161.918472 84.733337 160.728806 84.932312 C 157.621735 85.452026 154.59198 86.401672 151.745728 87.221344 C 147.23317 88.520874 142.867477 90.263184 138.381973 91.685181 C 133.505661 93.231049 128.373993 93.971252 123.353966 95.06427 C 123.030502 95.134674 122.687309 95.168304 122.391228 95.302673 C 117.537659 97.504974 112.861694 100.311035 107.797455 101.782379 C 101.628571 103.574677 95.134201 104.246643 88.780624 105.403198 C 87.213203 107.359344 85.351868 108.390259 83.357635 108.93219 C 81.793678 109.357178 79.943954 108.819031 78.432159 109.331329 C 73.356262 111.051453 68.461838 113.343781 63.334045 114.864319 C 57.607513 116.562347 50.971622 116.456238 46.115723 119.410522 C 42.520237 121.597961 39.379696 121.507507 35.898731 122.097961 C 34.953651 122.25827 34.182938 123.458344 33.336819 124.186584 C 32.655014 124.773376 32.022247 125.817627 31.295319 125.885681 C 27.009907 126.286987 22.997017 126.125854 18.762526 128.635406 C 14.262336 131.302429 8.407598 131.683838 2.998649 133.10144 C 2.998649 135.346008 2.998619 137.162354 2.998654 138.978699 C 2.999016 158.135315 3.04464 177.292175 2.913281 196.447876 C 2.902846 197.969543 1.666585 199.482819 1 201 Z"/>
    <path id="path2" fill="#dd1b1b" stroke="none" d="M 1 201.468658 C 1.666585 199.482819 2.902846 197.969543 2.913281 196.447876 C 3.04464 177.292175 2.999016 158.135315 2.998654 138.978699 C 2.998619 137.162354 2.998649 135.346008 2.998649 133.10144 C 8.407598 131.683838 14.262336 131.302429 18.762526 128.635406 C 22.997017 126.125854 27.009907 126.286987 31.295319 125.885681 C 32.022247 125.817627 32.655014 124.773376 33.336819 124.186584 C 34.182938 123.458344 34.953651 122.25827 35.898731 122.097961 C 39.379696 121.507507 42.520237 121.597961 46.115723 119.410522 C 50.971622 116.456238 57.607513 116.562347 63.334045 114.864319 C 68.461838 113.343781 73.356262 111.051453 78.432159 109.331329 C 79.943954 108.819031 81.793678 109.357178 83.357635 108.93219 C 85.351868 108.390259 87.213203 107.359344 88.780624 105.403198 C 95.134201 104.246643 101.628571 103.574677 107.797455 101.782379 C 112.861694 100.311035 117.537659 97.504974 122.391228 95.302673 C 122.687309 95.168304 123.030502 95.134674 123.353966 95.06427 C 128.373993 93.971252 133.505661 93.231049 138.381973 91.685181 C 142.867477 90.263184 147.23317 88.520874 151.745728 87.221344 C 154.59198 86.401672 157.621735 85.452026 160.728806 84.932312 C 161.918472 84.733337 163.041916 83.941711 164.111298 83.283325 C 164.9487 82.767731 165.57135 81.664215 166.435272 81.469666 C 172.015167 80.213257 177.657532 79.230774 183.226364 77.931213 C 184.638138 77.601746 185.859985 76.45224 187.164322 75.67157 C 187.712814 75.343262 188.207382 74.829224 188.797226 74.680725 C 193.798248 73.421783 198.834793 72.299591 203.81633 70.970215 C 205.303802 70.573273 206.658798 69.666016 208.055542 68.955322 C 208.310318 68.825714 208.503998 68.297058 208.674362 68.320892 C 214.365707 69.117188 218.864594 65.855347 223.885025 64.18811 C 229.203583 62.421875 235.110016 62.457184 240.474991 60.789642 C 244.867905 59.424255 248.84288 56.713867 253.002258 54.597992 C 253.292984 54.450104 253.559998 54.203735 253.865479 54.144379 C 259.332642 53.081787 264.918518 52.434479 270.242676 50.885925 C 275.660583 49.31012 280.809143 46.818329 286.105072 44.805145 C 287.258209 44.366821 288.525024 44.146942 289.759399 44.01944 C 292.436096 43.742981 295.809723 45.169556 296.723083 40.869934 C 296.803955 40.489258 297.785767 40.14743 298.389862 40.055664 C 301.780121 39.540619 304.822144 39.990845 308.392822 37.483368 C 312.442261 34.639648 318.790588 35.169159 324.067261 33.925751 C 326.268372 33.407104 328.292725 32.118073 330.374756 31.131378 C 330.802643 30.928619 331.142395 30.222351 331.500702 30.238464 C 336.126801 30.446655 340.274994 29.257813 344.464783 27.17868 C 346.84259 25.998749 350.766266 28.290619 351.909607 23.768524 C 352.035126 23.272095 353.97406 23.282257 355.045258 22.966949 C 357.375702 22.281036 359.715851 20.855896 362.00415 20.946167 C 368.391693 21.198181 373.354248 17.02832 379.296906 16.016022 C 384.129883 15.192749 389.667114 15.126587 393.476929 12.595032 C 397.528564 9.902832 398.96405 10.688171 403.270294 12.381226 C 413.195953 16.283691 420.585632 23.733368 429.817963 28.37674 C 434.478912 30.720917 438.834167 33.717224 443.16983 36.651855 C 447.912262 39.861816 453.172333 42.012695 457.496643 46.257446 C 461.292511 49.98349 467.376007 51.283173 472.191956 54.095001 C 476.333374 56.513 480.00296 59.72699 484.078491 62.273163 C 489.022003 65.361603 494.2612 67.976379 499.20755 71.060638 C 503.667908 73.841858 507.905762 76.97995 512.62085 79.980316 C 513 84.68927 513 89.37851 513 94.533875 C 512.420227 95.22113 511.446533 95.310425 511.321625 95.683716 C 510.082825 99.386383 509.30072 103.272827 507.760345 106.835266 C 506.110077 110.651917 503.538513 114.06546 501.8237 117.860382 C 500.245789 121.352356 499.296387 125.125885 498.016388 128.75647 C 497.655243 129.780884 497.169586 130.775757 496.626984 131.718536 C 495.802704 133.150757 494.692474 134.444275 494.038147 135.942749 C 492.870819 138.616028 492.137329 141.48584 490.888519 144.114868 C 488.972046 148.149414 486.774963 152.050842 484.689362 156.004761 C 484.542633 156.282959 484.202972 156.513672 484.17215 156.790833 C 483.553131 162.357025 481.22998 166.894775 477.287323 171.033142 C 475.39386 173.02063 475.169708 176.608704 474.218658 179.481567 C 472.760803 183.885132 472.552887 189.707367 469.547607 192.317383 C 466.405792 195.04599 469.021271 200.404694 463.62149 201.670898 C 461.944489 202.064148 461.153748 206.832153 460.22757 209.685059 C 459.001251 213.462341 458.144043 217.359985 456.900726 221.130859 C 456.539673 222.226013 455.441101 223.102661 454.59967 224.003906 C 454.201111 224.430725 453.294708 224.582031 453.158661 225.024353 C 451.919525 229.053345 450.799591 233.119049 449.506561 237.659454 C 448.74527 237.851318 447.54187 238.154572 446.080048 238.522949 C 447.06131 244.109924 444.29483 245.447876 439.282074 245.081696 C 433.978546 244.694275 428.624268 244.967041 423.292664 245.011078 C 419.209686 245.04483 415.032379 244.329102 411.505493 247.575409 C 410.644287 248.368103 408.625854 247.996155 407.138947 248.001099 C 398.974548 248.028198 390.809784 247.97583 382.645477 248.01355 C 378.628143 248.032104 374.513214 247.253052 371.182037 250.865356 C 370.20575 251.924103 367.794403 251.932373 366.035767 251.951111 C 356.706207 252.050537 347.372894 251.897949 338.046356 252.093719 C 336.329651 252.129761 334.662415 253.438477 332.926971 254.025696 C 331.626953 254.465607 330.25589 254.958984 328.9133 254.96814 C 318.250305 255.040955 307.585419 254.928223 296.924255 255.085754 C 295.422943 255.107941 293.95816 256.336487 292.44165 256.915466 C 290.499969 257.65683 288.537872 258.845978 286.558624 258.900421 C 278.236298 259.129333 269.901337 258.878418 261.577179 259.070862 C 257.721344 259.160004 253.335114 257.415009 250.317337 261.755127 C 249.903198 262.350739 248.106216 262.05304 246.949478 262.05304 C 239.285507 262.05304 231.620834 261.951447 223.957825 262.027252 C 219.593506 262.070404 215.516327 262.166595 211.102264 264.195923 C 206.58429 266.27301 200.772659 265.743866 195.511871 265.9375 C 190.534164 266.120789 185.508087 265.388519 180.557037 265.765381 C 176.954666 266.039581 173.450516 267.508759 169.880707 268.352631 C 168.447571 268.691406 166.957138 268.947418 165.490601 268.95874 C 157.493774 269.020569 149.492874 268.857544 141.500504 269.057526 C 137.633743 269.154327 133.285339 267.4953 130.172852 271.694427 C 129.667587 272.376068 127.639626 271.991364 126.315308 271.993713 C 116.484673 272.011292 106.650696 271.868469 96.826065 272.111633 C 94.808182 272.161591 92.842773 273.670441 90.820648 274.419037 C 89.205162 275.017059 87.546906 275.908813 85.896141 275.93457 C 76.569427 276.080231 67.23925 276.003418 57.910248 276.004028 C 56.910587 276.004089 55.768547 275.695313 54.932545 276.068054 C 41.71434 281.961639 27.786541 277.724274 14.254315 278.992767 C 11.990164 279.205017 9.583259 278.19632 8.244475 281.623962 C 7.806273 282.74585 4.077286 282.582428 1.426619 283.003418 C 1 255.979126 1 228.958191 1 201.468658 M 23.00082 219.5 C 23.00082 231.247711 23.00082 242.995422 23.00082 255.001892 C 30.413061 255.001892 37.062344 255.005157 43.711613 254.998352 C 44.710533 254.997314 46.058159 255.361877 46.653908 254.858459 C 52.114983 250.243683 58.590092 252.334717 64.648491 252.067841 C 71.133926 251.782166 77.641739 252.020264 84.139526 251.984009 C 85.286072 251.9776 87.188049 252.11261 87.45517 251.560364 C 89.271393 247.805237 92.563843 249.197235 95.347168 249.041626 C 100.152115 248.772949 104.966293 248.612854 109.778534 248.545959 C 115.636055 248.464539 121.495567 248.526611 127.35421 248.526611 C 129.88887 246.621582 132.734482 245.161072 135.623337 245.069885 C 144.943451 244.775696 154.280121 245.046783 163.608765 244.945709 C 165.314377 244.927246 167.023575 244.226563 168.710648 243.765747 C 170.715912 243.218079 172.691391 242.108002 174.693069 242.076111 C 185.353546 241.906464 196.018234 242.012573 206.68132 241.980225 C 207.988449 241.976257 210.137054 242.144958 210.464554 241.503265 C 212.563065 237.391449 216.319916 238.128967 219.68541 238.070313 C 228.013245 237.925171 236.345108 238.01593 244.675262 237.990479 C 246.003281 237.986389 247.847382 238.411865 248.573257 237.718262 C 252.652466 233.820251 257.617462 235.131714 262.3013 235.051086 C 270.296478 234.913452 278.295959 235.040344 286.292664 234.960876 C 287.504791 234.948822 288.764099 234.55719 289.910248 234.108002 C 292.260193 233.187073 294.521179 231.310974 296.866364 231.231506 C 307.223114 230.880554 317.596802 231.034546 327.964233 230.982605 C 328.783752 230.978516 330.094177 231.084717 330.34491 230.654785 C 332.671783 226.664642 336.488525 228.094391 339.764038 228.042542 C 348.758881 227.900085 357.757507 228.009888 366.754578 227.983887 C 368.074036 227.980072 370.147308 228.268829 370.587158 227.589935 C 373.069031 223.75885 376.769958 225.125916 380.040619 225.062683 C 387.702118 224.914551 395.368683 225.052185 403.032318 224.980774 C 406.977325 224.944031 411.322357 226.197998 414.097565 221.794098 C 414.432861 221.262024 415.584625 221.035461 416.362885 221.024841 C 422.121552 220.945923 428.170288 222.211243 432.365936 217.211273 C 433.611847 212.367554 434.753326 207.622009 436.118744 202.941772 C 436.331757 202.211487 437.626068 201.842834 438.308197 201.189758 C 438.943909 200.581177 439.688599 199.897827 439.937866 199.106476 C 441.08374 195.468689 442.055786 191.776398 443.143433 188.119507 C 443.258881 187.731415 443.80249 187.490631 444.011902 187.107422 C 446.018677 183.434998 448.831207 179.946594 449.773132 176.012817 C 450.980347 170.971313 452.294983 166.359314 456.306732 162.848206 C 456.718506 162.487823 456.792114 161.717468 456.974701 161.12265 C 458.023743 157.705017 459.035583 154.275635 460.131348 150.873169 C 460.246552 150.515381 460.947327 150.38147 461.171448 150.017456 C 462.154541 148.420959 463.224274 146.846069 463.944855 145.129944 C 464.500458 143.806763 464.386169 142.207672 464.912994 140.866058 C 466.573029 136.638519 468.356659 132.457672 470.186676 128.300262 C 470.545715 127.484619 471.365356 126.882507 471.903137 126.132141 C 472.63681 125.10849 473.486603 124.110199 473.94516 122.964386 C 474.356445 121.936646 474.005676 120.562347 474.512329 119.621704 C 476.49231 115.94577 479.281891 112.592621 480.63913 108.722717 C 482.412445 103.666382 483.093719 98.250122 486.729126 93.92337 C 487.032654 93.562134 486.165833 91.575287 485.37381 91.047729 C 482.062286 88.841858 478.227356 87.312622 475.224365 84.777252 C 470.24292 80.571472 463.796478 79.067474 458.885406 74.37674 C 454.184387 69.886658 447.86731 66.487732 441.660583 64.355957 C 436.23056 62.490906 433.493042 55.725372 426.788544 56.849915 C 426.602234 56.881165 426.351379 56.450531 426.112549 56.25769 C 422.317841 53.192902 418.831268 48.194855 414.650269 47.523285 C 408.362335 46.513275 406.352722 38.655701 399.594696 39.75885 C 399.485535 39.776672 399.27771 39.590576 399.218353 39.454834 C 397.040649 34.475616 393.329285 36.817932 390.702362 38.284393 C 386.235535 40.777924 380.238617 39.256653 376.652405 43.913849 C 376.284882 44.391113 374.730652 43.870087 373.744263 43.974487 C 372.133179 44.14505 370.486115 44.280762 368.94574 44.738831 C 366.946899 45.333252 365.094757 46.470245 363.078613 46.947632 C 358.094635 48.127747 353.052155 49.06012 348.037567 50.112915 C 347.741302 50.17511 347.363007 50.352448 347.22583 50.592255 C 344.011932 56.211426 337.509521 54.30899 332.771881 56.64856 C 327.175232 59.412292 319.700348 58.544556 314.348938 61.568237 C 311.147034 63.377441 308.497284 63.699402 305.366211 64.033813 C 304.601959 64.115448 303.343994 64.302979 303.20166 64.734772 C 302.016266 68.330627 298.83786 67.228149 296.388275 67.805725 C 294.656525 68.21405 292.887848 68.485962 291.181244 68.977142 C 285.498047 70.612946 279.819885 72.270355 274.172394 74.024475 C 271.897156 74.731171 269.706329 75.709717 267.477081 76.564575 C 267.602539 77.102539 267.728027 77.640533 267.853485 78.178528 C 265.197144 78.178528 261.238312 77.06424 260.115753 78.376404 C 255.841858 83.37207 248.657913 79.24231 244.193253 84.51651 C 242.343735 86.701385 237.033707 85.486206 233.081436 87.558044 C 227.670715 90.39444 220.830093 90.503174 214.602356 91.780975 C 213.313232 93.541443 211.760269 94.536591 210.06665 94.937134 C 204.846909 96.171631 199.571838 97.17157 194.325165 98.29483 C 194.040131 98.355835 193.806717 98.698395 193.567947 98.92923 C 188.828995 103.51059 182.140228 102.579071 176.549026 104.86261 C 171.667633 106.856293 166.29007 107.631714 161.139847 108.97644 C 160.677841 109.097046 160.296722 109.499451 159.841949 109.680054 C 155.383347 111.450958 151.009155 113.509247 146.430252 114.883911 C 140.376328 116.701355 134.15918 117.974335 128.014572 119.490936 C 124.662689 120.318237 121.307709 121.135254 117.971397 122.021881 C 116.9758 122.286438 116.011642 122.715179 115.080376 123.166321 C 113.219543 124.067749 111.457993 125.222565 109.527016 125.914215 C 108.176537 126.397949 106.199905 125.758606 105.213959 126.529816 C 100.198074 130.453369 93.910057 130.495605 88.243561 131.698669 C 82.641869 132.888 78.237007 138.317749 71.846542 136.236328 C 71.757584 136.207336 71.575661 136.411255 71.458755 136.528137 C 67.281532 140.703796 61.053905 139.612823 56.141308 142.675995 C 52.024487 145.242981 46.196384 145.062531 41.129623 146.115967 C 40.818169 146.180725 40.547161 146.420105 40.242519 146.540833 C 38.15947 147.366394 36.132961 148.503357 33.969753 148.910583 C 31.793646 149.32019 29.480278 149.000702 26.996834 149.000702 C 26.996834 151.410095 27.059904 153.058899 26.98608 154.701538 C 26.638367 162.438477 27.53899 170.540955 25.468391 177.791687 C 23.854845 183.441956 23.022293 188.81604 23.00618 194.507446 C 22.983534 202.504913 23.00057 210.502472 23.00082 219.5 Z"/>
    <path id="path3" fill="#2a086a" stroke="none" d="M 194.468658 513 C 191.374969 509.724182 188.459869 506.631287 186.234955 503.103119 C 184.924118 501.024536 184.092896 498.256531 184.089127 495.796967 C 183.977829 423.363129 184.002151 350.929047 183.98175 278.495026 C 183.980881 275.371826 183.988403 273.019287 188.158661 271.986023 C 203.53009 268.177399 219.123535 269.098389 234.681946 269.013733 C 241.893814 268.974518 242.001984 269.145721 242.003525 276.216187 C 242.019669 349.649139 241.970657 423.082275 242.171921 496.51474 C 242.19017 503.174561 239.967667 508.144562 235.07605 512.655457 C 221.645767 513 208.29155 513 194.468658 513 Z"/>
    <path id="path4" fill="#2a086a" stroke="none" d="M 233.531342 1 C 239.809601 7.245239 242.775986 14.325928 242.141068 23.152313 C 241.544998 31.438934 242.056396 39.803223 242.025085 48.133148 C 242.005905 53.231476 238.664169 56.442993 233.67128 57.080658 C 231.086502 57.410767 228.62851 58.747131 226.119049 59.645142 C 225.338654 59.924408 224.602676 60.376434 223.803253 60.546082 C 218.167877 61.742004 212.428345 62.560272 206.905731 64.140839 C 201.919022 65.567993 196.997314 67.472565 192.355469 69.785706 C 187.478409 72.216064 184.063736 70.705566 184.037796 65.27655 C 183.962158 49.449646 183.659958 33.611359 184.159149 17.800018 C 184.370087 11.118591 188.550964 5.830383 193.920151 1.344604 C 207.020889 1 220.041794 1 233.531342 1 Z"/>
    <path id="path5" fill="#000000" stroke="none" d="M 23.000729 219 C 23.00057 210.502472 22.983534 202.504913 23.00618 194.507446 C 23.022293 188.81604 23.854845 183.441956 25.468391 177.791687 C 27.53899 170.540955 26.638367 162.438477 26.98608 154.701538 C 27.059904 153.058899 26.996834 151.410095 26.996834 149.000702 C 29.480278 149.000702 31.793646 149.32019 33.969753 148.910583 C 36.132961 148.503357 38.15947 147.366394 40.242519 146.540833 C 40.547161 146.420105 40.818169 146.180725 41.129623 146.115967 C 46.196384 145.062531 52.024487 145.242981 56.141308 142.675995 C 61.053905 139.612823 67.281532 140.703796 71.458755 136.528137 C 71.575661 136.411255 71.757584 136.207336 71.846542 136.236328 C 78.237007 138.317749 82.641869 132.888 88.243561 131.698669 C 93.910057 130.495605 100.198074 130.453369 105.213959 126.529816 C 106.199905 125.758606 108.176537 126.397949 109.527016 125.914215 C 111.457993 125.222565 113.219543 124.067749 115.080376 123.166321 C 116.011642 122.715179 116.9758 122.286438 117.971397 122.021881 C 121.307709 121.135254 124.662689 120.318237 128.014572 119.490936 C 134.15918 117.974335 140.376328 116.701355 146.430252 114.883911 C 151.009155 113.509247 155.383347 111.450958 159.841949 109.680054 C 160.296722 109.499451 160.677841 109.097046 161.139847 108.97644 C 166.29007 107.631714 171.667633 106.856293 176.549026 104.86261 C 182.140228 102.579071 188.828995 103.51059 193.567947 98.92923 C 193.806717 98.698395 194.040131 98.355835 194.325165 98.29483 C 199.571838 97.17157 204.846909 96.171631 210.06665 94.937134 C 211.760269 94.536591 213.313232 93.541443 214.602356 91.780975 C 220.830093 90.503174 227.670715 90.39444 233.081436 87.558044 C 237.033707 85.486206 242.343735 86.701385 244.193253 84.51651 C 248.657913 79.24231 255.841858 83.37207 260.115753 78.376404 C 261.238312 77.06424 265.197144 78.178528 267.853485 78.178528 C 267.728027 77.640533 267.602539 77.102539 267.477081 76.564575 C 269.706329 75.709717 271.897156 74.731171 274.172394 74.024475 C 279.819885 72.270355 285.498047 70.612946 291.181244 68.977142 C 292.887848 68.485962 294.656525 68.21405 296.388275 67.805725 C 298.83786 67.228149 302.016266 68.330627 303.20166 64.734772 C 303.343994 64.302979 304.601959 64.115448 305.366211 64.033813 C 308.497284 63.699402 311.147034 63.377441 314.348938 61.568237 C 319.700348 58.544556 327.175232 59.412292 332.771881 56.64856 C 337.509521 54.30899 344.011932 56.211426 347.22583 50.592255 C 347.363007 50.352448 347.741302 50.17511 348.037567 50.112915 C 353.052155 49.06012 358.094635 48.127747 363.078613 46.947632 C 365.094757 46.470245 366.946899 45.333252 368.94574 44.738831 C 370.486115 44.280762 372.133179 44.14505 373.744263 43.974487 C 374.730652 43.870087 376.284882 44.391113 376.652405 43.913849 C 380.238617 39.256653 386.235535 40.777924 390.702362 38.284393 C 393.329285 36.817932 397.040649 34.475616 399.218353 39.454834 C 399.27771 39.590576 399.485535 39.776672 399.594696 39.75885 C 406.352722 38.655701 408.362335 46.513275 414.650269 47.523285 C 418.831268 48.194855 422.317841 53.192902 426.112549 56.25769 C 426.351379 56.450531 426.602234 56.881165 426.788544 56.849915 C 433.493042 55.725372 436.23056 62.490906 441.660583 64.355957 C 447.86731 66.487732 454.184387 69.886658 458.885406 74.37674 C 463.796478 79.067474 470.24292 80.571472 475.224365 84.777252 C 478.227356 87.312622 482.062286 88.841858 485.37381 91.047729 C 486.165833 91.575287 487.032654 93.562134 486.729126 93.92337 C 483.093719 98.250122 482.412445 103.666382 480.63913 108.722717 C 479.281891 112.592621 476.49231 115.94577 474.512329 119.621704 C 474.005676 120.562347 474.356445 121.936646 473.94516 122.964386 C 473.486603 124.110199 472.63681 125.10849 471.903137 126.132141 C 471.365356 126.882507 470.545715 127.484619 470.186676 128.300262 C 468.356659 132.457672 466.573029 136.638519 464.912994 140.866058 C 464.386169 142.207672 464.500458 143.806763 463.944855 145.129944 C 463.224274 146.846069 462.154541 148.420959 461.171448 150.017456 C 460.947327 150.38147 460.246552 150.515381 460.131348 150.873169 C 459.035583 154.275635 458.023743 157.705017 456.974701 161.12265 C 456.792114 161.717468 456.718506 162.487823 456.306732 162.848206 C 452.294983 166.359314 450.980347 170.971313 449.773132 176.012817 C 448.831207 179.946594 446.018677 183.434998 444.011902 187.107422 C 443.80249 187.490631 443.258881 187.731415 443.143433 188.119507 C 442.055786 191.776398 441.08374 195.468689 439.937866 199.106476 C 439.688599 199.897827 438.943909 200.581177 438.308197 201.189758 C 437.626068 201.842834 436.331757 202.211487 436.118744 202.941772 C 434.753326 207.622009 433.611847 212.367554 432.365936 217.211273 C 428.170288 222.211243 422.121552 220.945923 416.362885 221.024841 C 415.584625 221.035461 414.432861 221.262024 414.097565 221.794098 C 411.322357 226.197998 406.977325 224.944031 403.032318 224.980774 C 395.368683 225.052185 387.702118 224.914551 380.040619 225.062683 C 376.769958 225.125916 373.069031 223.75885 370.587158 227.589935 C 370.147308 228.268829 368.074036 227.980072 366.754578 227.983887 C 357.757507 228.009888 348.758881 227.900085 339.764038 228.042542 C 336.488525 228.094391 332.671783 226.664642 330.34491 230.654785 C 330.094177 231.084717 328.783752 230.978516 327.964233 230.982605 C 317.596802 231.034546 307.223114 230.880554 296.866364 231.231506 C 294.521179 231.310974 292.260193 233.187073 289.910248 234.108002 C 288.764099 234.55719 287.504791 234.948822 286.292664 234.960876 C 278.295959 235.040344 270.296478 234.913452 262.3013 235.051086 C 257.617462 235.131714 252.652466 233.820251 248.573257 237.718262 C 247.847382 238.411865 246.003281 237.986389 244.675262 237.990479 C 236.345108 238.01593 228.013245 237.925171 219.68541 238.070313 C 216.319916 238.128967 212.563065 237.391449 210.464554 241.503265 C 210.137054 242.144958 207.988449 241.976257 206.68132 241.980225 C 196.018234 242.012573 185.353546 241.906464 174.693069 242.076111 C 172.691391 242.108002 170.715912 243.218079 168.710648 243.765747 C 167.023575 244.226563 165.314377 244.927246 163.608765 244.945709 C 154.280121 245.046783 144.943451 244.775696 135.623337 245.069885 C 132.734482 245.161072 129.88887 246.621582 127.35421 248.526611 C 121.495567 248.526611 115.636055 248.464539 109.778534 248.545959 C 104.966293 248.612854 100.152115 248.772949 95.347168 249.041626 C 92.563843 249.197235 89.271393 247.805237 87.45517 251.560364 C 87.188049 252.11261 85.286072 251.9776 84.139526 251.984009 C 77.641739 252.020264 71.133926 251.782166 64.648491 252.067841 C 58.590092 252.334717 52.114983 250.243683 46.653908 254.858459 C 46.058159 255.361877 44.710533 254.997314 43.711613 254.998352 C 37.062344 255.005157 30.413061 255.001892 23.00082 255.001892 C 23.00082 242.995422 23.00082 231.247711 23.000729 219 M 404.002197 54.273285 C 400.93634 52.488098 397.489349 51.127136 394.905365 48.805603 C 391.967896 46.166504 388.782898 46.083618 386.364899 47.980896 C 381.094086 52.116608 374.767517 52.392273 368.793274 53.962585 C 363.631744 55.319244 358.370972 56.295746 353.19516 57.602997 C 352.358429 57.814331 351.805176 58.978607 350.995636 59.512482 C 350.092255 60.108246 349.091583 60.714233 348.05426 60.922852 C 342.458313 62.048096 336.834778 63.035309 331.230255 64.119202 C 330.603577 64.240417 330.052582 64.711517 329.439911 64.953003 C 324.34729 66.960327 319.343109 69.260132 314.125397 70.863617 C 308.638367 72.549896 302.90683 73.425018 297.360626 74.941772 C 295.088348 75.563171 293.117462 77.308105 290.84259 77.894226 C 285.623566 79.238922 280.301025 80.180908 275.024536 81.30542 C 274.712463 81.371918 274.416992 81.578918 274.146027 81.766937 C 268.253448 85.855896 261.500549 87.187988 254.561432 88.108582 C 252.586411 88.370575 250.73201 89.495667 248.805237 90.176636 C 244.253815 91.785278 239.767899 93.651215 235.115005 94.882019 C 229.58989 96.343597 223.905304 97.193909 218.319778 98.442993 C 217.250717 98.682037 216.335526 99.570343 215.322357 100.108307 C 214.098587 100.758118 212.908096 101.618134 211.595062 101.9263 C 206.44162 103.135864 201.244675 104.15976 196.067734 105.270477 C 195.756226 105.337311 195.386566 105.486084 195.197891 105.720551 C 190.600601 111.434143 183.166412 108.808228 177.442322 111.747559 C 172.896164 114.082031 167.275864 114.30542 162.156906 115.565338 C 161.423538 115.74585 160.856537 116.532562 160.161774 116.955322 C 158.999084 117.662811 157.867676 118.645081 156.596802 118.913269 C 150.676849 120.162506 144.704712 121.162781 138.775345 122.370514 C 137.875931 122.553711 137.134766 123.421326 136.265213 123.863953 C 134.780807 124.619537 133.30928 125.491699 131.725967 125.934509 C 130.315643 126.328918 128.644135 125.884338 127.291656 126.373474 C 122.590614 128.073608 118.090202 130.41272 113.304382 131.773376 C 106.975571 133.572693 100.101425 133.859467 94.140274 136.393036 C 90.61512 137.891235 87.415703 139.038513 83.676102 139.188782 C 82.856133 139.22171 82.101593 140.223969 81.266663 140.689758 C 79.826286 141.493225 78.425102 142.577332 76.869148 142.925476 C 71.233093 144.186554 65.5373 145.179382 59.871994 146.31311 C 59.417439 146.404053 59.048344 146.859436 58.5975 147.041199 C 53.670643 149.027466 48.889576 151.773987 43.767113 152.785217 C 35.634354 154.390747 33.488266 156.773438 32.91748 165.398499 C 31.753342 182.989807 35.349968 200.646301 30.499846 218.305969 C 28.243628 226.520996 29.993149 235.859253 30.15029 244.684357 C 30.169493 245.762939 31.549112 247.709167 32.348572 247.735657 C 37.149616 247.894775 42.470879 248.853577 46.646626 247.155762 C 51.724361 245.091187 56.580975 245.070435 61.660122 245.015625 C 67.323898 244.954529 72.988884 245.013062 78.65313 244.981262 C 79.809425 244.974792 81.418343 245.253296 82.046799 244.626556 C 86.066193 240.617981 91.047935 242.272095 95.685699 242.021332 C 103.62957 241.591766 112.246918 243.032227 119.32888 240.363464 C 125.808136 237.921875 131.79985 238.477417 138.028778 238.064392 C 142.8396 237.745392 147.689529 238.062439 152.518066 237.939362 C 154.127029 237.898315 155.738312 237.431 157.322479 237.05014 C 159.972763 236.412903 162.569656 235.328918 165.248077 235.087158 C 169.049194 234.74408 172.935211 235.304321 176.728516 234.920593 C 183.019958 234.284149 190.118896 237.594788 195.388748 231.302429 C 195.836823 230.767456 197.308899 231.115662 198.299973 231.00589 C 210.110443 229.697754 221.821411 231.559326 233.962967 228.694519 C 247.244614 225.56073 261.7164 228.694641 275.555939 225.290009 C 281.556335 223.813843 288.264557 225.377686 294.383606 224.186096 C 305.86853 221.949493 317.295868 220.171844 329.026428 220.980835 C 331.181213 221.129425 333.357727 221.024597 335.521515 220.954193 C 336.505524 220.92218 337.504364 220.773132 338.459534 220.53125 C 341.668243 219.718719 344.81665 218.460083 348.070099 218.087006 C 351.852936 217.653229 355.730927 218.136047 359.552002 217.930481 C 366.310822 217.566956 373.610321 219.979431 379.419464 214.261688 C 379.788391 213.89856 380.704315 214.065857 381.368073 214.031403 C 393.780731 213.387115 406.462158 215.970612 418.506805 210.966003 C 419.929871 210.374695 421.7995 209.885162 422.523895 208.749817 C 426.12854 203.100281 429.367401 197.219116 432.835754 191.480408 C 435.935944 186.350891 435.675262 180.184998 439.335541 174.869019 C 443.634003 168.62616 445.183899 160.670715 449.393097 153.917175 C 453.111633 147.950836 454.470673 140.547852 457.185059 133.907349 C 458.517975 130.646545 460.72934 127.755432 462.239716 124.553833 C 463.994476 120.834229 465.483276 116.983429 466.965027 113.142334 C 468.542267 109.053833 469.536133 104.667725 471.624878 100.874176 C 473.053986 98.278625 473.069092 97.169281 470.478882 95.872864 C 467.188568 94.226074 463.876923 92.56192 460.802185 90.556183 C 452.938873 85.426697 445.309875 79.933167 437.383118 74.907043 C 429.733154 70.056427 421.79776 65.658112 414.049591 60.959167 C 410.838623 59.011841 407.788391 56.7995 404.002197 54.273285 Z"/>
    <path id="path6" fill="#2a086a" stroke="none" d="M 404.333618 54.490479 C 407.788391 56.7995 410.838623 59.011841 414.049591 60.959167 C 421.79776 65.658112 429.733154 70.056427 437.383118 74.907043 C 445.309875 79.933167 452.938873 85.426697 460.802185 90.556183 C 463.876923 92.56192 467.188568 94.226074 470.478882 95.872864 C 473.069092 97.169281 473.053986 98.278625 471.624878 100.874176 C 469.536133 104.667725 468.542267 109.053833 466.965027 113.142334 C 465.483276 116.983429 463.994476 120.834229 462.239716 124.553833 C 460.72934 127.755432 458.517975 130.646545 457.185059 133.907349 C 454.470673 140.547852 453.111633 147.950836 449.393097 153.917175 C 445.183899 160.670715 443.634003 168.62616 439.335541 174.869019 C 435.675262 180.184998 435.935944 186.350891 432.835754 191.480408 C 429.367401 197.219116 426.12854 203.100281 422.523895 208.749817 C 421.7995 209.885162 419.929871 210.374695 418.506805 210.966003 C 406.462158 215.970612 393.780731 213.387115 381.368073 214.031403 C 380.704315 214.065857 379.788391 213.89856 379.419464 214.261688 C 373.610321 219.979431 366.310822 217.566956 359.552002 217.930481 C 355.730927 218.136047 351.852936 217.653229 348.070099 218.087006 C 344.81665 218.460083 341.668243 219.718719 338.459534 220.53125 C 337.504364 220.773132 336.505524 220.92218 335.521515 220.954193 C 333.357727 221.024597 331.181213 221.129425 329.026428 220.980835 C 317.295868 220.171844 305.86853 221.949493 294.383606 224.186096 C 288.264557 225.377686 281.556335 223.813843 275.555939 225.290009 C 261.7164 228.694641 247.244614 225.56073 233.962967 228.694519 C 221.821411 231.559326 210.110443 229.697754 198.299973 231.00589 C 197.308899 231.115662 195.836823 230.767456 195.388748 231.302429 C 190.118896 237.594788 183.019958 234.284149 176.728516 234.920593 C 172.935211 235.304321 169.049194 234.74408 165.248077 235.087158 C 162.569656 235.328918 159.972763 236.412903 157.322479 237.05014 C 155.738312 237.431 154.127029 237.898315 152.518066 237.939362 C 147.689529 238.062439 142.8396 237.745392 138.028778 238.064392 C 131.79985 238.477417 125.808136 237.921875 119.32888 240.363464 C 112.246918 243.032227 103.62957 241.591766 95.685699 242.021332 C 91.047935 242.272095 86.066193 240.617981 82.046799 244.626556 C 81.418343 245.253296 79.809425 244.974792 78.65313 244.981262 C 72.988884 245.013062 67.323898 244.954529 61.660122 245.015625 C 56.580975 245.070435 51.724361 245.091187 46.646626 247.155762 C 42.470879 248.853577 37.149616 247.894775 32.348572 247.735657 C 31.549112 247.709167 30.169493 245.762939 30.15029 244.684357 C 29.993149 235.859253 28.243628 226.520996 30.499846 218.305969 C 35.349968 200.646301 31.753342 182.989807 32.91748 165.398499 C 33.488266 156.773438 35.634354 154.390747 43.767113 152.785217 C 48.889576 151.773987 53.670643 149.027466 58.5975 147.041199 C 59.048344 146.859436 59.417439 146.404053 59.871994 146.31311 C 65.5373 145.179382 71.233093 144.186554 76.869148 142.925476 C 78.425102 142.577332 79.826286 141.493225 81.266663 140.689758 C 82.101593 140.223969 82.856133 139.22171 83.676102 139.188782 C 87.415703 139.038513 90.61512 137.891235 94.140274 136.393036 C 100.101425 133.859467 106.975571 133.572693 113.304382 131.773376 C 118.090202 130.41272 122.590614 128.073608 127.291656 126.373474 C 128.644135 125.884338 130.315643 126.328918 131.725967 125.934509 C 133.30928 125.491699 134.780807 124.619537 136.265213 123.863953 C 137.134766 123.421326 137.875931 122.553711 138.775345 122.370514 C 144.704712 121.162781 150.676849 120.162506 156.596802 118.913269 C 157.867676 118.645081 158.999084 117.662811 160.161774 116.955322 C 160.856537 116.532562 161.423538 115.74585 162.156906 115.565338 C 167.275864 114.30542 172.896164 114.082031 177.442322 111.747559 C 183.166412 108.808228 190.600601 111.434143 195.197891 105.720551 C 195.386566 105.486084 195.756226 105.337311 196.067734 105.270477 C 201.244675 104.15976 206.44162 103.135864 211.595062 101.9263 C 212.908096 101.618134 214.098587 100.758118 215.322357 100.108307 C 216.335526 99.570343 217.250717 98.682037 218.319778 98.442993 C 223.905304 97.193909 229.58989 96.343597 235.115005 94.882019 C 239.767899 93.651215 244.253815 91.785278 248.805237 90.176636 C 250.73201 89.495667 252.586411 88.370575 254.561432 88.108582 C 261.500549 87.187988 268.253448 85.855896 274.146027 81.766937 C 274.416992 81.578918 274.712463 81.371918 275.024536 81.30542 C 280.301025 80.180908 285.623566 79.238922 290.84259 77.894226 C 293.117462 77.308105 295.088348 75.563171 297.360626 74.941772 C 302.90683 73.425018 308.638367 72.549896 314.125397 70.863617 C 319.343109 69.260132 324.34729 66.960327 329.439911 64.953003 C 330.052582 64.711517 330.603577 64.240417 331.230255 64.119202 C 336.834778 63.035309 342.458313 62.048096 348.05426 60.922852 C 349.091583 60.714233 350.092255 60.108246 350.995636 59.512482 C 351.805176 58.978607 352.358429 57.814331 353.19516 57.602997 C 358.370972 56.295746 363.631744 55.319244 368.793274 53.962585 C 374.767517 52.392273 381.094086 52.116608 386.364899 47.980896 C 388.782898 46.083618 391.967896 46.166504 394.905365 48.805603 C 397.489349 51.127136 400.93634 52.488098 404.333618 54.490479 Z"/>
</svg>
